<svg width="50" height="47" viewBox="0 0 50 47" fill="none" xmlns="http://www.w3.org/2000/svg">
<ellipse cx="25" cy="23.2197" rx="25" ry="23.1084" fill="white"/>
<path d="M35.2499 16.6314C35.2499 14.9013 33.5983 13.3748 31.7266 13.3748H17.5233C15.6515 13.3748 14 14.9013 14 16.6314V29.7597C14 31.4898 15.6515 33.0164 17.5233 33.0164H24.68V25.5871H22.0375V22.3305H24.68V21.0075C24.68 18.7686 26.4416 16.8349 28.6437 16.8349H31.5064V20.0916H28.6437C28.3134 20.0916 27.9831 20.3969 27.9831 21.0075V22.3305H31.5064V25.5871H27.9831V33.0164H31.7266C33.5983 33.0164 35.2499 31.4898 35.2499 29.7597V16.6314Z" fill="#8253D8"/>
</svg>
