<svg width="50" height="47" viewBox="0 0 50 47" fill="none" xmlns="http://www.w3.org/2000/svg">
<ellipse cx="25" cy="23.2195" rx="25" ry="23.1082" fill="white"/>
<path d="M33.2291 13.9766H18.0257C16.3092 13.9766 15.0013 15.1853 15.0013 16.7717V30.823C15.0013 32.4094 16.3092 33.6182 18.0257 33.6182H33.2291C34.9456 33.6182 36.2534 32.4094 36.2534 30.823V16.7717C36.2534 15.1853 34.9456 13.9766 33.2291 13.9766ZM25.6274 29.6898C29.1421 29.6898 32.003 27.1213 32.003 24.024C32.003 23.4952 31.9213 22.8908 31.7578 22.4376H33.556V30.4453C33.556 30.823 33.2291 31.2007 32.7386 31.2007H18.5161C18.1074 31.2007 17.6987 30.8986 17.6987 30.4453V22.362H19.5787C19.4152 22.8908 19.3335 23.4196 19.3335 23.9485C19.2518 27.1213 22.1126 29.6898 25.6274 29.6898ZM25.6274 27.4235C23.3387 27.4235 21.5404 25.7615 21.5404 23.7218C21.5404 21.6821 23.3387 20.0201 25.6274 20.0201C27.9161 20.0201 29.7143 21.6821 29.7143 23.7218C29.7143 25.8371 27.9161 27.4235 25.6274 27.4235ZM33.4743 19.3402C33.4743 19.7935 33.0656 20.1712 32.5752 20.1712H30.2865C29.7961 20.1712 29.3874 19.7935 29.3874 19.3402V17.3005C29.3874 16.8473 29.7961 16.4695 30.2865 16.4695H32.5752C33.0656 16.4695 33.4743 16.8473 33.4743 17.3005V19.3402Z" fill="#8253D8"/>
</svg>
