<svg width="50" height="47" viewBox="0 0 50 47" fill="none" xmlns="http://www.w3.org/2000/svg">
<ellipse cx="25" cy="23.2195" rx="25" ry="23.1082" fill="white"/>
<path d="M38.2518 17.3273C37.3768 17.6739 36.3768 17.905 35.3768 18.0206C36.3768 17.4429 37.2518 16.5186 37.6268 15.4787C36.6268 16.0564 35.6268 16.403 34.3768 16.6341C33.5018 15.7098 32.1268 15.1321 30.7518 15.1321C28.0018 15.1321 25.7518 17.2118 25.7518 19.7537C25.7518 20.1003 25.7518 20.4469 25.8768 20.7935C21.7518 20.5624 18.0018 18.7138 15.5018 15.9409C15.1268 16.6341 14.8768 17.4429 14.8768 18.2516C14.8768 19.8692 15.7518 21.2557 17.1268 22.0645C16.2518 22.0645 15.5018 21.8334 14.8768 21.4868C14.8768 23.682 16.6268 25.6462 18.8768 25.9928C18.5018 26.1083 18.0018 26.1083 17.5018 26.1083C17.1268 26.1083 16.8768 26.1083 16.5018 25.9928C17.1268 27.8414 19.0018 29.2279 21.2518 29.2279C19.5018 30.4988 17.3768 31.1921 15.0018 31.1921C14.6268 31.1921 14.2518 31.1921 13.7518 31.0765C16.0018 32.3475 18.6268 33.1562 21.5018 33.1562C30.7518 33.1562 35.7518 26.1083 35.7518 19.9847V19.407C36.7518 19.0604 37.6268 18.2516 38.2518 17.3273Z" fill="#8253D8"/>
</svg>
